<svg xmlns="http://www.w3.org/2000/svg" width="128" height="128" viewBox="0 0 128 128" fill="none">
  <defs>
    <linearGradient id="g" x1="0" y1="0" x2="1" y2="1">
      <stop offset="0%" stop-color="#5B6CFF"/>
      <stop offset="100%" stop-color="#89E6A0"/>
    </linearGradient>
  </defs>
  <circle cx="64" cy="64" r="58" fill="url(#g)" opacity="0.18"/>
  <circle cx="64" cy="64" r="44" fill="#fff"/>
  <g fill="#0f1b3d">
    <path d="M41 64c0-12.7 9.3-23 22.7-23 7.2 0 12.8 2.6 16.9 7.6l-6.6 5.5c-2.3-2.8-5.8-4.4-10.4-4.4-8.9 0-14.9 6.3-14.9 14.3 0 8 6 14.3 14.9 14.3 4.6 0 8.2-1.7 10.5-4.6l6.6 5.4c-4.3 5.3-10 8.1-17.2 8.1C50.3 87 41 76.7 41 64Z"/>
    <path d="M90 43h-6v42h6V43Z"/>
  </g>
  <text x="64" y="114" font-size="14" text-anchor="middle" fill="#0f1b3d" font-family="Segoe UI, Arial, sans-serif">Connect AI</text>
</svg>